<svg width="1440" height="900" viewBox="0 0 1440 900" fill="none" xmlns="http://www.w3.org/2000/svg">
<g opacity="0.2" clip-path="url(#clip0)">
<path d="M1399 0L499 900L-18.5 900L881.5 0L1399 0Z" fill="url(#paint0_linear)"/>
<path d="M911.8 0L11.8 900L-604.7 900L295.3 0L911.8 0Z" fill="url(#paint1_linear)"/>
<path d="M36 0L936 900L1551 900L651 0L36 0Z" fill="url(#paint2_linear)"/>
<path d="M521.2 0L1421.2 900L1916.2 900L1016.2 0L521.2 0Z" fill="url(#paint3_linear)"/>
<path d="M476.683 -6.10352e-05L-6.10352e-05 476.683L-6.10352e-05 -6.10352e-05L476.683 -6.10352e-05Z" fill="url(#paint4_linear)"/>
<path d="M1440 -6.10352e-05L963.317 -6.10352e-05L1440 476.683V-6.10352e-05Z" fill="url(#paint5_linear)"/>
</g>
<defs>
<linearGradient id="paint0_linear" x1="1399" y1="0" x2="584.491" y2="1282.85" gradientUnits="userSpaceOnUse">
<stop stop-color="#F1E402" stop-opacity="0.2"/>
<stop offset="0.66" stop-color="#F1E402" stop-opacity="0"/>
</linearGradient>
<linearGradient id="paint1_linear" x1="911.8" y1="0" x2="121.797" y2="1331.16" gradientUnits="userSpaceOnUse">
<stop stop-color="#F1E402" stop-opacity="0.2"/>
<stop offset="0.66" stop-color="#F1E402" stop-opacity="0"/>
</linearGradient>
<linearGradient id="paint2_linear" x1="36" y1="0" x2="826.378" y2="1330.47" gradientUnits="userSpaceOnUse">
<stop stop-color="#F1E402" stop-opacity="0.2"/>
<stop offset="0.66" stop-color="#F1E402" stop-opacity="0"/>
</linearGradient>
<linearGradient id="paint3_linear" x1="521.2" y1="0" x2="1341.19" y2="1270.98" gradientUnits="userSpaceOnUse">
<stop stop-color="#F1E402" stop-opacity="0.2"/>
<stop offset="0.66" stop-color="#F1E402" stop-opacity="0"/>
</linearGradient>
<linearGradient id="paint4_linear" x1="476.683" y1="-6.10352e-05" x2="-6.10352e-05" y2="476.683" gradientUnits="userSpaceOnUse">
<stop stop-color="#F1E402" stop-opacity="0.2"/>
<stop offset="0.66" stop-color="#F1E402" stop-opacity="0"/>
</linearGradient>
<linearGradient id="paint5_linear" x1="963.317" y1="-6.10352e-05" x2="1440" y2="476.683" gradientUnits="userSpaceOnUse">
<stop stop-color="#F1E402" stop-opacity="0.2"/>
<stop offset="0.66" stop-color="#F1E402" stop-opacity="0"/>
</linearGradient>
<clipPath id="clip0">
<rect width="1440" height="900" fill="white" transform="translate(1440 900) rotate(-180)"/>
</clipPath>
</defs>
</svg>
